Coordinates
version=1
nRows=17
nColumns=34
inDegrees=yes

Units are S.I. units (second, meters, Newtons, ...)
If the header above contains a line with 'inDegrees', this indicates whether rotational values are in degrees (yes) or radians (no).

endheader
time	pelvis_tilt	pelvis_list	pelvis_rotation	pelvis_tx	pelvis_ty	pelvis_tz	hip_flexion_r	hip_adduction_r	hip_rotation_r	knee_angle_r	ankle_angle_r	subtalar_angle_r	mtp_angle_r	hip_flexion_l	hip_adduction_l	hip_rotation_l	knee_angle_l	ankle_angle_l	subtalar_angle_l	mtp_angle_l	lumbar_extension	lumbar_bending	lumbar_rotation	arm_flex_r	arm_add_r	arm_rot_r	elbow_flex_r	pro_sup_r	arm_flex_l	arm_add_l	arm_rot_l	elbow_flex_l	pro_sup_l
      3.03333330	    -27.86944228	      4.97002097	      3.93786328	      0.83528896	      0.59151839	     -0.08184471	    103.76226789	    -15.88556499	      7.24497407	    115.69252899	     34.56808984	    -13.10394368	      0.00000000	     98.87660061	    -18.16083399	     -6.91473965	    112.47868838	     26.13386574	      1.76733764	      0.00000000	    -39.06852263	     -6.25252207	      0.84145235	     92.22313076	      6.44513610	     46.93820777	    108.50125565	    100.43639156	     91.87611541	     -6.85882674	     31.32403009	    102.19537184	     91.49355195
      3.05000000	    -28.02779129	      5.16422086	      4.15945036	      0.84274542	      0.60959211	     -0.08844882	    101.93969685	    -15.43566253	      7.71185860	    113.41749495	     33.34431298	    -13.74404431	      0.00000000	     97.44716746	    -17.17273902	     -7.92712010	    110.13387618	     24.10271050	      0.56442966	      0.00000000	    -38.57863714	     -6.74434943	     -0.97343077	     93.12177120	     10.53935481	     46.33301201	    111.50069657	    100.22492323	     97.53877249	     -7.34010659	     35.37742394	    101.61582046	     91.62575323
      3.06666670	    -28.36457276	      5.22741461	      4.48337433	      0.85443545	      0.63198606	     -0.09445303	     99.12969154	    -15.72966735	      7.82148177	    110.45652549	     32.33335070	    -14.14802043	      0.00000000	     95.02292474	    -15.88390727	     -9.00479450	    107.00148797	     22.62795589	     -0.53486805	      0.00000000	    -36.97566034	     -6.48134001	     -2.01560566	     89.99314280	     14.48386906	     45.68211863	    113.58540053	    100.09754748	     99.85339909	     -8.60248842	     39.23292893	    103.48105083	     91.89747557
      3.08333330	    -28.85199764	      5.29507345	      4.45601034	      0.86465138	      0.65091354	     -0.09698064	     96.58315659	    -15.96769762	      7.78094473	    107.09012998	     30.21002106	    -14.59205962	      0.00000000	     92.44717501	    -14.89770924	     -9.84796906	    104.07724698	     22.09524115	     -1.01452083	      0.00000000	    -34.49781492	     -6.43186217	     -2.59540394	     84.52648693	     18.67494270	     45.35023547	    114.79695310	     99.92181010	    101.66101020	    -11.07270708	     44.47744742	    108.22110764	     92.19852812
      3.10000000	    -29.16162785	      5.24988399	      4.21822029	      0.86994040	      0.67490221	     -0.10099870	     93.90341445	    -16.19114024	      7.44502163	    103.52652104	     27.89369673	    -14.28136159	      0.00000000	     89.44450486	    -13.84927692	    -10.51161482	    100.62790045	     21.36071901	     -1.83775088	      0.00000000	    -32.79193159	     -6.33029722	     -2.83246446	     76.80146990	     22.95470579	     44.75641843	    108.96730212	     99.35366037	    104.63780042	    -13.01291711	     48.37806383	    113.75977637	     91.97322776
      3.11666670	    -29.04769142	      5.13130349	      3.68998599	      0.86850170	      0.69884957	     -0.10339594	     91.19412923	    -16.04588844	      6.76958085	     99.85402856	     24.76633538	    -14.68924217	      0.00000000	     86.33611689	    -12.98466812	    -10.85952524	     96.62825499	     19.60985723	     -2.56801456	      0.00000000	    -31.42352009	     -6.20420975	     -4.05841476	     68.33758056	     27.96872476	     42.96676510	    106.19942428	     98.34813461	    110.30881702	    -15.97651738	     50.38545451	    119.11868930	     91.32973633
      3.13333330	    -28.66630945	      5.03474976	      3.11294861	      0.87359627	      0.71691517	     -0.10409676	     88.72726125	    -15.91558613	      5.95158694	     96.49199422	     21.00317776	    -15.52656227	      0.00000000	     83.28027266	    -12.49831676	    -11.15052838	     93.07590315	     17.82827983	     -3.48020907	      0.00000000	    -30.10674988	     -6.07050660	     -5.92542047	     58.80606253	     34.16079732	     41.74350274	    105.36793945	     97.08478003	    117.76710418	    -19.03550295	     49.32865939	    124.61368025	     90.23092218
      3.15000000	    -27.98069555	      5.01595683	      2.58596306	      0.87858800	      0.75013809	     -0.10457154	     84.90223862	    -15.54199107	      4.97433972	     91.69143560	     16.94788203	    -16.21378464	      0.00000000	     79.05399110	    -11.72566172	    -11.72627662	     88.00744024	     15.80670807	     -4.63564946	      0.00000000	    -29.36126106	     -5.89215884	     -7.81300631	     48.21077054	     39.15030706	     42.55828536	    107.62258063	     95.95954570	    123.69774612	    -21.59117315	     46.43802685	    126.73817359	     88.98810669
      3.16666670	    -27.17690155	      5.17778642	      1.88605021	      0.87591261	      0.77413047	     -0.10588413	     81.31137523	    -15.05262516	      4.19212231	     86.55499419	     13.62787189	    -16.79944402	      0.00000000	     74.97959702	    -10.79404560	    -12.10880126	     82.93948315	     14.72985081	     -6.12053408	      0.00000000	    -28.67283731	     -5.38085389	     -9.57794110	     38.57126725	     45.39542455	     43.94329607	    108.25129278	     95.31460692	    128.18506136	    -24.15810624	     39.12163251	    125.14589060	     87.11985159
      3.18333330	    -26.51312319	      5.51878212	      0.91922399	      0.88833912	      0.79842291	     -0.10877934	     77.62590763	    -14.60858679	      3.61431673	     81.56112816	      9.87641426	    -17.50656699	      0.00000000	     70.65331712	     -9.94069677	    -12.72995152	     77.67235977	     12.99443591	     -7.98481099	      0.00000000	    -27.36202441	     -4.46281309	     -8.03070438	     29.61535411	     52.65105277	     45.66546087	    105.34198849	     95.73382625	    127.59317240	    -25.69860630	     27.17538359	    121.62242063	     85.00215318
      3.20000000	    -25.92314065	      5.54104449	      0.21341362	      0.90107127	      0.82614913	     -0.11303942	     72.88769288	    -14.37899591	      2.74887094	     75.46158405	      6.76291089	    -17.26061138	      0.00000000	     66.19390870	     -8.67829673	    -12.91472918	     71.73042158	     10.62314099	    -10.07362034	      0.00000000	    -25.88384623	     -3.33947435	     -2.66035525	     27.72961807	     60.87586582	     41.60270376	     98.23627889	     97.28124961	    122.81545698	    -22.54767563	     11.32836952	    114.25740597	     83.03021102
      3.21666670	    -24.99081906	      5.61284759	     -0.39504262	      0.91215769	      0.84964194	     -0.11578386	     67.73433669	    -14.48694083	      1.74520586	     69.40643505	      4.05761735	    -17.63798064	      0.00000000	     61.39763689	     -7.17687973	    -12.74250844	     66.07393931	      8.75380937	    -12.11679504	      0.00000000	    -24.33442450	     -2.81404732	      1.92389182	     29.72984125	     65.78492137	     33.01078402	     91.71196076	     99.17710772	    119.87617034	    -17.16337869	     -2.62983899	    103.95528688	     82.30427160
      3.23333330	    -24.64875746	      5.48380988	     -0.77655892	      0.92484296	      0.86789661	     -0.11489179	     63.19848619	    -14.42303601	      0.46829838	     63.67788913	      1.95033572	    -17.79284139	      0.00000000	     57.20473642	     -5.90168208	    -11.98768391	     60.48568809	      6.82280067	    -13.34940507	      0.00000000	    -21.16899126	     -2.78400656	      4.67805761	     25.62499451	     66.72413799	     30.14159774	     93.41317919	    100.99207234	    120.49086719	     -9.86556637	    -16.81763341	     90.90980802	     82.40331535
      3.25000000	    -24.13895620	      5.35873269	     -1.10880621	      0.93894044	      0.89574946	     -0.11621179	     58.10440159	    -14.42313520	     -1.13327575	     57.62097336	     -0.77568613	    -16.74815263	      0.00000000	     52.47746483	     -4.52684310	    -11.18317036	     54.00886917	      3.87066541	    -13.62998410	      0.00000000	    -17.79907407	     -1.62351461	      5.59448510	     22.43497543	     68.63715764	     25.87468197	     94.67741417	    103.57866980	    118.27455211	     -7.95829486	    -28.37921908	     81.80750600	     83.75883338
      3.26666670	    -22.95278535	      5.09014277	     -1.53596843	      0.95438057	      0.92567499	     -0.11398157	     51.85730303	    -14.04011909	     -3.19264307	     50.55436557	     -4.24978467	    -16.30321099	      0.00000000	     46.44513966	     -3.40026804	    -10.24282196	     46.20831908	     -0.11363691	    -13.88248223	      0.00000000	    -12.89884275	      0.87154632	     -2.98545582	     37.02552123	     65.94333514	     18.81250225	     92.82655269	    107.68749207	    113.87317835	    -21.51192150	    -29.95237708	     74.84615852	     87.27741070
      3.28333330	    -22.07215196	      5.08005976	     -2.09063239	      0.96509666	      0.95615868	     -0.11406792	     46.11832270	    -13.58128863	     -5.17155476	     42.76905823	     -8.82191694	    -14.93037763	      0.00000000	     40.16391482	     -2.20721233	     -9.66820850	     37.05048433	     -5.54099555	    -13.99858401	      0.00000000	     -7.50814292	      0.53533396	    -11.80180280	     33.69860870	     55.41188671	     24.73417634	    104.28242741	    108.67043637	    110.80174780	    -30.26904546	    -33.85940153	     68.97289624	     88.15942488
      3.30000000	    -20.00506769	      4.03132796	     -2.17973524	      0.98055533	      0.99209274	     -0.11488270	     37.92302394	    -12.78879684	     -9.15489107	     33.50729027	    -14.15609904	    -11.49561875	      0.00000000	     33.05305392	     -1.77811517	     -8.00077656	     27.81435357	    -12.36958643	    -13.85297631	      0.00000000	     -1.87762744	     -6.76586538	    -29.55354934	     55.97171665	     19.73182315	     28.78881154	    112.05418363	    107.47077541	    115.11168807	    -44.30949317	    -20.28652819	     59.90728445	     93.35740133
